<svg width="38" height="38" viewBox="0 0 38 38" fill="none" xmlns="http://www.w3.org/2000/svg">
<path d="M34.8333 18.9998C34.8333 27.7443 27.7445 34.8332 19 34.8332C10.2555 34.8332 3.16667 27.7443 3.16667 18.9998C3.16667 10.2553 10.2555 3.1665 19 3.1665C27.7445 3.1665 34.8333 10.2553 34.8333 18.9998Z" fill="white"/>
<path fill-rule="evenodd" clip-rule="evenodd" d="M19 11.479C19.6558 11.479 20.1875 12.0107 20.1875 12.6665V18.508L23.798 22.1185C24.2618 22.5822 24.2618 23.3341 23.798 23.7979C23.3343 24.2616 22.5824 24.2616 22.1186 23.7979L18.1603 19.8395C17.9376 19.6168 17.8125 19.3148 17.8125 18.9998V12.6665C17.8125 12.0107 18.3442 11.479 19 11.479Z" fill="#9BCDCD"/>
</svg>
