<svg width="16" height="17" viewBox="0 0 16 17" fill="none" xmlns="http://www.w3.org/2000/svg">
<path fill-rule="evenodd" clip-rule="evenodd" d="M14.6667 8.50004C14.6667 12.1819 11.6819 15.1667 7.99999 15.1667C4.3181 15.1667 1.33333 12.1819 1.33333 8.50004C1.33333 4.81814 4.3181 1.83337 7.99999 1.83337C11.6819 1.83337 14.6667 4.81814 14.6667 8.50004ZM10.6869 6.47982C10.8821 6.67508 10.8821 6.99166 10.6869 7.18693L7.35355 10.5203C7.15829 10.7155 6.8417 10.7155 6.64644 10.5203L5.31311 9.18693C5.11785 8.99166 5.11785 8.67508 5.31311 8.47982C5.50837 8.28456 5.82495 8.28456 6.02021 8.47982L6.99999 9.4596L8.48988 7.96971L9.97977 6.47982C10.175 6.28456 10.4916 6.28456 10.6869 6.47982Z" fill="#079583"/>
</svg>
