<svg width="57" height="56" viewBox="0 0 57 56" fill="none" xmlns="http://www.w3.org/2000/svg">
<g clip-path="url(#clip0_1_744)">
<path d="M0 34.81L7.81228 21.5981L12.9306 24.3612L5.00952 38.113L0 35.2511V34.81Z" fill="#ECF1F0"/>
<path d="M27.5598 0.0503427C41.742 -1.1608 44.3466 19.8608 30.5548 22.1901C15.0107 24.8174 12.1945 1.36327 27.5598 0.0503427Z" fill="#ECF1F0"/>
<path d="M36.512 37.0113C34.6896 36.8977 34.4408 40.3821 34.2754 40.5311C34.1592 40.6359 32.398 40.5577 31.3907 41.5328C30.452 42.443 30.3879 44.3888 30.2672 44.4979C30.1972 44.5614 28.4941 44.7413 28.3883 44.7325C28.0143 44.6971 27.3214 43.9447 26.7224 43.7323C26.3082 43.5848 25.6213 43.7087 25.365 43.5332C25.2339 43.4432 25.0297 41.8204 24.4873 41.0961C23.2595 39.4542 22.0362 40.0325 21.3568 39.5663C21.1899 39.4513 21.105 37.3934 19.6998 36.3578C16.2146 33.7895 13.7874 38.1502 11.4674 40.0414L7.58582 37.7666L13.6145 27.1349C14.0258 26.8782 19.6045 27.2411 20.795 27.0788C22.6203 26.831 24.4844 24.4692 26.0415 25.8854C24.4888 26.8605 22.3298 27.2396 21.4804 29.0806C21.1944 29.6987 20.132 33.4694 20.1111 34.0727C20.0411 36.1867 22.4773 36.5584 24.1491 36.5894C27.9994 36.6602 26.6405 30.6384 31.2477 32.8586C31.5844 33.0209 36.6997 36.7369 36.509 37.0128L36.512 37.0113Z" fill="#ECF1F0"/>
<path d="M43.6209 27.5421L48.9761 36.6854C48.9702 37.0011 43.7863 39.8069 43.4704 39.8497C42.7731 39.9441 41.2801 37.9924 40.6259 37.4613C39.2313 36.3254 32.17 30.9749 30.9586 30.7211C27.001 29.8906 26.411 32.0282 24.5812 34.775L22.0466 34.3604C22.6471 32.5902 22.6158 29.8272 24.3324 28.8167C24.982 28.4346 30.7351 25.645 31.1076 25.5948C32.468 25.4134 38.1346 28.2325 40.2147 28.4021C41.4574 28.5024 42.5138 27.9935 43.6194 27.5436L43.6209 27.5421Z" fill="#ECF1F0"/>
<path d="M49.1833 21.5981L57.0001 35.136L51.9846 38.113L44.0784 24.5485C44.0248 24.1414 44.1604 24.2845 44.363 24.1709C45.938 23.2799 47.5294 22.3357 49.1833 21.5981Z" fill="#ECF1F0"/>
<path d="M17.0833 37.4939C18.8639 37.1265 19.8875 39.0266 18.8862 40.6154C18.5331 41.1745 15.5858 44.0718 15.0449 44.3063C13.1988 45.1029 11.5612 43.5658 12.4955 41.7823C12.7681 41.263 16.596 37.5956 17.0833 37.4953V37.4939Z" fill="#ECF1F0"/>
<path d="M38.8901 48.8485C38.1704 49.6274 37.0007 49.4828 36.1782 48.9178C35.7744 48.6405 32.7064 45.5839 32.5336 45.2534C31.5323 43.3357 33.4976 41.502 35.4079 42.8474C35.8355 43.1483 38.8364 46.1385 39.0525 46.5103C39.4936 47.2715 39.507 48.1787 38.8886 48.847L38.8901 48.8485Z" fill="#ECF1F0"/>
<path d="M37.7904 38.3698C39.124 38.1323 43.4808 42.4516 43.4108 43.7203C43.3259 45.2398 41.6958 45.7871 40.4367 45.1424C40.1238 44.9816 36.7012 41.5946 36.5417 41.2862C35.9591 40.1666 36.4449 38.6117 37.7919 38.3712L37.7904 38.3698Z" fill="#ECF1F0"/>
<path d="M21.0915 41.4621C22.5055 41.1701 23.7795 42.6453 23.2088 44.0128C23.0896 44.2975 19.2021 48.2422 18.9205 48.3616C17.1727 49.1051 15.6335 47.4101 16.5037 45.7491C16.7763 45.2298 20.6042 41.5625 21.0915 41.4621Z" fill="#ECF1F0"/>
<path d="M25.0983 45.4289C26.5123 45.1369 27.7863 46.612 27.2156 47.9796C27.0815 48.3012 23.3758 52.0098 23.0152 52.1957C21.2376 53.1118 19.5941 51.4684 20.512 49.7173C20.7846 49.1981 24.6125 45.5307 25.0998 45.4304L25.0983 45.4289Z" fill="#ECF1F0"/>
<path d="M34.8818 52.8151C34.1308 53.6279 32.4233 53.4804 31.8123 52.5599C31.3996 51.9373 32.4873 50.1671 30.6114 48.6978C30.2627 48.4249 29.2435 48.0664 29.2018 48C29.1079 47.8481 29.1064 46.6694 29.1973 46.5248C29.476 46.0793 30.7142 46.3744 31.1508 46.6207C31.5233 46.8317 34.5481 49.8071 34.8505 50.2291C35.4316 51.036 35.6179 52.017 34.8818 52.8136V52.8151Z" fill="#ECF1F0"/>
<path d="M24.9954 54.5912C23.8526 53.3446 27.7162 49.9222 28.6073 49.8912C29.6712 49.8528 30.1092 50.8825 29.7173 51.7794C29.5579 52.1468 26.4855 55.0116 26.1264 55.0426C25.9177 55.0603 25.1236 54.7328 24.9954 54.5912Z" fill="#ECF1F0"/>
<path d="M28.7206 55.7478C28.4598 55.3967 30.1436 54.1118 30.3894 53.771C31.7841 54.9659 29.3807 56.6388 28.7206 55.7478Z" fill="#ECF1F0"/>
<path d="M24.3234 9.96049C25.4871 8.80688 26.5793 11.5699 27.2707 12.0833C27.667 12.0848 31.4025 8.49119 32.3442 8.08403C33.5109 7.57804 34.0384 8.87474 33.3009 9.70233C32.1342 10.316 27.9784 14.4613 27.0486 14.4539C26.3617 14.448 23.4427 10.8353 24.3234 9.96196V9.96049Z" fill="#9BCDCD"/>
</g>
<defs>
<clipPath id="clip0_1_744">
<rect width="57" height="56" fill="white"/>
</clipPath>
</defs>
</svg>
